<svg xmlns="http://www.w3.org/2000/svg" width="250" height="249.76" viewBox="0 0 106.5 106.4"><linearGradient id="a" x1="9.779" x2="97.92" y1="-408.5" y2="-508.4" gradientTransform="matrix(1 0 0 -1 0 -404)" gradientUnits="userSpaceOnUse"><stop stop-color="#ff8f4a" offset="0"/><stop stop-color="#fe514a" offset="1"/></linearGradient><path d="M97.7 106.4h-89c-4.8 0-8.7-3.9-8.7-8.7v-89C0 3.9 3.9 0 8.7 0h89c4.8 0 8.8 3.9 8.8 8.7v89c0 4.8-4 8.7-8.8 8.7" style="fill:url(#a)"/><path d="M12.2 32.8c2-.5 7.6-1.1 16.3-1.1C38.9 31.4 48 36 51.1 44.6c.9 2.5 1.2 5.4 1.2 8.4-.1 11.2-7.8 21.2-23.4 21.2-6.9 0-13.9-.3-16.7-1.2zm11.7 31H29c6 0 10.8-2.7 11.4-8.8.8-6.5-2.8-12.4-11.5-12.3h-5zm31.8-32.1h11.9V48h15V31.7c1 0 11.9.1 11.9.6v40.8c-.1.8-11.9 1.1-12 1.1V58.4h-15v15.8H55.7z" style="fill:#fff"/></svg>