<svg xmlns="http://www.w3.org/2000/svg" xml:space="preserve" baseProfile="tiny" overflow="visible" version="1.2" viewBox="0 0 80 80"><g fill-rule="evenodd"><path fill="#EE7300" d="M67.64 57.91c0 5.64.8 5.11-3.69 7.51l-3.56 2.07c-3.3 1.5-3.04 2.76-5.65 1.33l-6.25-3.59c-.33-.18-.61-.29-.9-.46-1.49-.89-2.46-1.14-2.47-3.01v-8.42c0-2.57.33-2.45 2.03-3.44l3.58-1.99c1.13-.61 2.34-1.31 3.53-2.01.61-.36 1.16-.75 1.89-.94.74-.2 1.46.39 1.91.65l5.37 3.01c2.27 1.33 4.24 1.8 4.24 3.98zm6.56-5.66c-.03-.92-.06-1.74-.12-2.39-.05-.6 0-.36-.16-.83-.09-.27-.14-.47-.25-.74-.32-.83-1.06-1.68-1.79-2.16-1.96-1.31-3.42-1.91-4.92-2.84l-4.31-2.47c-.24-.13-.43-.22-.64-.35-.43-.25-.83-.51-1.24-.73-.46-.25-.82-.41-1.28-.69-2.43-1.47-3.98-1.25-6.51.11-.33.18-.32.16-.63.36L41.2 45.87c-1.15.67-2.34 2.2-2.53 3.4-.1.65-.14 1.13-.14 1.84 0 3.8-.14 9.7.11 13.25.17 2.32 1.39 3.54 3.31 4.59l10.06 5.71c2.45 1.38 3.54 2.25 6.22 1.24.95-.36 1.48-.7 2.35-1.22l1.89-1.06c.21-.11.4-.22.63-.36.21-.12.41-.22.64-.35s.4-.26.6-.38l5.12-2.89c.84-.47 1.77-.89 2.47-1.47 1.18-.98 1.49-1.36 1.95-2.74.23-.68.14-.33.17-1.06.05-.97.09-2.25.12-3.66v-8.46zM9.33 26.37c-.12-.89.01-2.29.04-3.22.04-1.24.34-1.78.58-2.75.38-1.49 1.66-3.27 2.43-4.22.89-1.09 2.16-2.29 3.53-3.02 5.14-2.75 11.2-2.02 15.12 1.43 2.25 1.98 4.45 5.54 4.59 8.56.05 1.08.03 2.15 0 3.23-.06 1.93-1.33 4.33-2.28 5.94-.2.34-.52.62-.77.94-1.78 2.31-4.71 4.06-8.51 4.68-3.88.63-7.26-.92-10.04-2.99-2.4-1.78-4.24-5.39-4.69-8.58M22.89 6.33c-7.14 0-13.79 3.87-16.88 10.48-.94 2.14-1.81 4.7-1.81 7.09v1.98c0 .81.19 1.12.24 1.86.06.77.2 1.17.4 1.82.1.31.13.44.25.86.09.3.21.5.31.8.62 1.84 1.94 4.09 3.23 5.53 1.03 1.15 1.62 1.79 2.89 2.66.59.41.36.41 1.3.92.25.13.46.26.7.41l3.06 1.37c2.19.63 2.76.95 5.7.95 2.12 0 4.73-.37 6.64-1.11.23-.09.59-.28.85-.39 2.46-1.05 4.78-2.85 6.49-4.85l1.84-2.48c.3-.46.54-1.05.8-1.54.28-.53.46-.94.67-1.55 1.07-3.07 1.39-6.1 1.05-8.93-1.01-8.58-7.97-15.36-17.73-15.88"/><path fill="#EE7300" d="M22.4 34.92c1.61 0 3.08-.25 4.31-.88 3.5-1.8 5.86-4.63 5.9-9.28.03-2.98-.87-5.15-2.83-7.18-3.47-3.58-9.16-4.08-13.07-1.39-2.65 1.82-4.43 5.04-4.39 8.45.03 2.14.53 4.16 1.72 5.82 1.89 2.64 4.3 4.46 8.36 4.46"/><path fill="#FFFFFD" d="m48.54 61.26-.02-5.63c.62-.06 3.2 1.59 3.83 1.98.75.46 3.25 1.92 4 1.94 1.31.04 6.9-3.97 7.81-3.93l.01 4.9c0 1.07-.15.93-1.42 1.63l-6.09 3.44c-.79.24-1.59-.54-2.19-.85l-4-2.28c-.69-.38-1.4-.71-1.93-1.2m1.52-9.03c.22.34 1.08.72 1.51.96.57.33 1.03.57 1.59.88 4.21 2.34 1.92 2.41 7.96-.87.49-.27 1.09-.56 1.56-.85-.13-.42-.66-.55-1.47-1.06l-4.79-2.68c-.29-.03-6.1 3.29-6.36 3.62m17.55 5.69.02-5.32c0-2.18-1.97-2.65-4.24-3.98l-5.37-3.01c-.45-.26-1.16-.85-1.91-.65-.73.19-1.28.58-1.89.94-1.19.7-2.39 1.4-3.53 2.01l-3.58 1.99c-1.71.99-2.04.87-2.03 3.44v8.42c.01 1.87.99 2.12 2.47 3.01.29.17.57.29.9.46l6.25 3.59c2.61 1.43 2.35.17 5.65-1.33l3.56-2.07c4.51-2.39 3.7-1.86 3.7-7.5m-45.21-23c-4.06 0-6.47-1.82-8.36-4.46-1.19-1.65-1.69-3.68-1.72-5.82-.04-3.41 1.74-6.63 4.39-8.45 3.91-2.68 9.6-2.19 13.07 1.39 1.96 2.03 2.86 4.2 2.83 7.18-.04 4.65-2.4 7.47-5.9 9.28-1.24.63-2.7.88-4.31.88M9.33 26.37c.45 3.19 2.29 6.81 4.68 8.57 2.79 2.07 6.17 3.62 10.04 2.99 3.8-.62 6.72-2.37 8.51-4.68.25-.32.57-.6.77-.94 3.64-6.13 3.23-12.84-2.31-17.73-3.92-3.45-9.98-4.18-15.12-1.43-1.37.73-2.64 1.93-3.53 3.02-.77.95-2.05 2.73-2.43 4.22-.49 1.94-.89 3.96-.61 5.98"/><path fill="#EE7300" d="M23.5 72.77c1.6 0 3.9-.28 5.47-.68.22-.06.36-.12.65-.21.37-.11.76-.24 1.2-.41.73-.28.7-.6.8.3.21 1.9 2.77 2.19 3.44.26l.72-2.49c.54-1.97 1.45-3.34-1.86-4.16-2.15-.54-3.79-1.63-4.99-.5-.89.83-.66 2.63.72 2.95v.25c-.26.02-2.81.79-3.69.86-.62.05-3.71.1-4.38-.05-4.32-.93-7.86-3.02-10.47-6.66L10 60.25c-1.18-2.67-1.34-3.5-1.55-6.17-.14-1.7.04-3.1.43-4.78l.55-1.8c.55-1.66 2.4-3.34 1.04-4.67l-.13-.12c-1.82-1.58-3 .81-3.62 2.07-.82 1.67-1.37 3.26-1.68 5.11-.08.51-.22.96-.24 1.49-.08 1.91-.06 4.31.37 6.07.74 3.06 1.83 5.49 3.76 7.97 1.89 2.42 3.86 3.85 6.54 5.29.39.21.69.3 1.09.51l.98.37c1.36.42 1.22.48 2.89.81zm18.49-58.9c0 1.01.66 1.86 1.63 1.92.81.06 2.5-1.06 3.66-1.55 3.15-1.32 7.36-1.34 10.54-.21 1.19.42 2.2.74 3.32 1.49.4.27.78.53 1.16.81.92.68 1.72 1.39 2.42 2.26.8 1 1.26 1.35 1.99 2.83.6 1.22.71 1.32 1.14 2.69.85 2.73 1.05 5.13.48 7.96-.09.45-.16.86-.29 1.32-.16.57-.34.44-.34 1.27h-.25c-.48-2.07-3.45-1.28-3.45.25 0 .98.48 2.27.75 3.2.97 3.26 1.04 3.51 4.15 2.73.41-.1 2.94-.81 3.36-1.07 1.01-.61 1.25-2.1-.01-3.03-.66-.49-.76-.24-1.5-.22l1.03-3.42c.11-.38.15-.86.22-1.26.36-2.11.29-4.35-.15-6.57-.08-.42-.16-.77-.28-1.21-1.63-6.31-7.68-13.06-14.32-14.03-.57-.08-.61-.18-1.23-.24-2.25-.24-3.07-.37-5.28-.11-.39.05-.37.06-.76.1l-2.99.7c-.04.01-.14.05-.18.07l-4.19 2.1c-.36.29-.63.57-.63 1.22m6.55 47.39c.54.49 1.25.82 1.93 1.19l4 2.28c.6.31 1.41 1.09 2.19.85l6.09-3.44c1.27-.69 1.42-.56 1.42-1.63l-.01-4.9c-.92-.04-6.5 3.97-7.81 3.93-.76-.02-3.26-1.49-4-1.94-.62-.38-3.21-2.04-3.83-1.98z"/><path fill="#EE7300" d="M50.06 52.23c.22.34 1.08.72 1.51.96.57.33 1.03.57 1.59.88 4.21 2.34 1.92 2.41 7.96-.87.49-.27 1.09-.56 1.56-.85-.13-.42-.66-.55-1.47-1.06l-4.79-2.68c-.29-.03-6.1 3.29-6.36 3.62"/><path fill="#FBFBFB" d="M17.93 22.16c-.4 0-.93-.06-1.25.06a.817.817 0 0 0-.04 1.54c.28.11.75.03.88.07.2.06.05.02.05.16v.98c-.49 0-.85-.06-1.17.22-.45.39-.39 1.16.29 1.4.31.11.78.07 1.19.07.72 2.92 3.68 4.97 6.89 3.92.73-.24 1.14-.58 1.69-1l.45-.46c.15-.15.28-.34.41-.5.76-.93-.25-1.77-1.09-1.28-.19.11-.2.16-.32.33-.55.72-1.46 1.55-2.56 1.55-1.03 0-1.74-.2-2.43-.86-.81-.77-.7-.91-1.14-1.69.6 0 3.85.06 4.28-.06 1.02-.29.74-1.64-.25-1.64h-4.38c0-.37-.04-.79.05-1.15l4.55-.01c.16-.03.37-.16.47-.28.42-.49.16-1.13-.37-1.32-.3-.11-3.81-.05-4.29-.05.08-.15.13-.28.21-.44.5-.94 1.51-1.98 2.73-1.98 2 0 2.24.61 3.27 1.69.68.72 2.15-.19 1.31-1.18-1.19-1.4-2.3-2.16-4.48-2.16-1.49 0-2.52.68-3.47 1.58-.12.11-.16.18-.27.3-.14.14-.37.47-.48.65-.26.4-.62 1.1-.73 1.54"/></g></svg>